<mxfile host="app.diagrams.net" modified="2024-08-23T23:48:51.046Z" agent="Mozilla/5.0 (Windows NT 10.0; Win64; x64) AppleWebKit/537.36 (KHTML, like Gecko) Chrome/127.0.0.0 Safari/537.36 Edg/127.0.0.0" etag="JtLTjy_ZywpdSTZOkQpM" version="24.4.0" type="device">
  <diagram name="Page-1" id="v6H_yYatDB-NajqB6iEE">
    <mxGraphModel dx="2587" dy="958" grid="1" gridSize="10" guides="1" tooltips="1" connect="1" arrows="1" fold="1" page="1" pageScale="1" pageWidth="850" pageHeight="1100" math="0" shadow="0">
      <root>
        <mxCell id="0" />
        <mxCell id="1" parent="0" />
        <mxCell id="wTjUlb8jR-apnW_w9-XR-1" value="" style="rounded=0;whiteSpace=wrap;html=1;fillColor=#e1d5e7;strokeColor=#FFFFFF;" vertex="1" parent="1">
          <mxGeometry x="100" y="80" width="620" height="1050" as="geometry" />
        </mxCell>
        <mxCell id="wTjUlb8jR-apnW_w9-XR-2" value="&lt;font size=&quot;1&quot; style=&quot;&quot;&gt;&lt;span style=&quot;font-size: 20px;&quot;&gt;Healthcare Management System&lt;/span&gt;&lt;/font&gt;" style="text;html=1;align=center;verticalAlign=middle;whiteSpace=wrap;rounded=0;glass=0;" vertex="1" parent="1">
          <mxGeometry x="250" y="110" width="320" height="30" as="geometry" />
        </mxCell>
        <mxCell id="wTjUlb8jR-apnW_w9-XR-3" value="Admin" style="shape=umlActor;verticalLabelPosition=bottom;verticalAlign=top;html=1;outlineConnect=0;fillColor=#f8cecc;strokeColor=#b85450;" vertex="1" parent="1">
          <mxGeometry x="20" y="390" width="30" height="60" as="geometry" />
        </mxCell>
        <mxCell id="wTjUlb8jR-apnW_w9-XR-5" value="Healthcare&amp;nbsp;&lt;div&gt;Manager&lt;div&gt;&lt;br&gt;&lt;/div&gt;&lt;/div&gt;" style="shape=umlActor;verticalLabelPosition=bottom;verticalAlign=top;html=1;outlineConnect=0;fillColor=#f8cecc;strokeColor=#b85450;" vertex="1" parent="1">
          <mxGeometry x="760" y="230" width="30" height="60" as="geometry" />
        </mxCell>
        <mxCell id="wTjUlb8jR-apnW_w9-XR-6" value="Patient&lt;div&gt;&lt;br&gt;&lt;/div&gt;" style="shape=umlActor;verticalLabelPosition=bottom;verticalAlign=top;html=1;outlineConnect=0;fillColor=#f8cecc;strokeColor=#b85450;" vertex="1" parent="1">
          <mxGeometry x="20" y="530" width="30" height="60" as="geometry" />
        </mxCell>
        <mxCell id="wTjUlb8jR-apnW_w9-XR-7" value="&lt;div&gt;Doctor&lt;/div&gt;" style="shape=umlActor;verticalLabelPosition=bottom;verticalAlign=top;html=1;outlineConnect=0;fillColor=#f8cecc;strokeColor=#b85450;" vertex="1" parent="1">
          <mxGeometry x="760" y="530" width="30" height="60" as="geometry" />
        </mxCell>
        <mxCell id="wTjUlb8jR-apnW_w9-XR-8" value="&lt;div&gt;Receptionist&lt;/div&gt;" style="shape=umlActor;verticalLabelPosition=bottom;verticalAlign=top;html=1;outlineConnect=0;fillColor=#f8cecc;strokeColor=#b85450;" vertex="1" parent="1">
          <mxGeometry x="760" y="680" width="30" height="60" as="geometry" />
        </mxCell>
        <mxCell id="wTjUlb8jR-apnW_w9-XR-17" value="Staff User" style="shape=umlActor;verticalLabelPosition=bottom;verticalAlign=top;html=1;outlineConnect=0;fillColor=#f8cecc;strokeColor=#b85450;" vertex="1" parent="1">
          <mxGeometry x="840" y="390" width="30" height="60" as="geometry" />
        </mxCell>
        <mxCell id="wTjUlb8jR-apnW_w9-XR-22" value="User" style="shape=umlActor;verticalLabelPosition=bottom;verticalAlign=top;html=1;outlineConnect=0;fillColor=#f8cecc;strokeColor=#b85450;" vertex="1" parent="1">
          <mxGeometry x="20" y="230" width="30" height="60" as="geometry" />
        </mxCell>
        <mxCell id="wTjUlb8jR-apnW_w9-XR-25" value="Login" style="ellipse;whiteSpace=wrap;html=1;fillColor=#fff2cc;strokeColor=#d6b656;" vertex="1" parent="1">
          <mxGeometry x="230" y="170" width="120" height="60" as="geometry" />
        </mxCell>
        <mxCell id="wTjUlb8jR-apnW_w9-XR-26" value="Logout" style="ellipse;whiteSpace=wrap;html=1;fillColor=#fff2cc;strokeColor=#d6b656;" vertex="1" parent="1">
          <mxGeometry x="320" y="240" width="120" height="60" as="geometry" />
        </mxCell>
        <mxCell id="wTjUlb8jR-apnW_w9-XR-27" value="" style="endArrow=none;html=1;rounded=0;entryX=0;entryY=0.5;entryDx=0;entryDy=0;" edge="1" parent="1" target="wTjUlb8jR-apnW_w9-XR-25">
          <mxGeometry width="50" height="50" relative="1" as="geometry">
            <mxPoint x="50" y="260" as="sourcePoint" />
            <mxPoint x="400" y="400" as="targetPoint" />
          </mxGeometry>
        </mxCell>
        <mxCell id="wTjUlb8jR-apnW_w9-XR-28" value="" style="endArrow=none;html=1;rounded=0;entryX=0;entryY=0.5;entryDx=0;entryDy=0;" edge="1" parent="1" target="wTjUlb8jR-apnW_w9-XR-26">
          <mxGeometry width="50" height="50" relative="1" as="geometry">
            <mxPoint x="50" y="260" as="sourcePoint" />
            <mxPoint x="240" y="210" as="targetPoint" />
          </mxGeometry>
        </mxCell>
        <mxCell id="wTjUlb8jR-apnW_w9-XR-34" value="" style="endArrow=classic;html=1;rounded=0;" edge="1" parent="1">
          <mxGeometry width="50" height="50" relative="1" as="geometry">
            <mxPoint x="800" y="250" as="sourcePoint" />
            <mxPoint x="850" y="380" as="targetPoint" />
            <Array as="points">
              <mxPoint x="850" y="250" />
            </Array>
          </mxGeometry>
        </mxCell>
        <mxCell id="wTjUlb8jR-apnW_w9-XR-35" value="" style="endArrow=classic;html=1;rounded=0;" edge="1" parent="1">
          <mxGeometry width="50" height="50" relative="1" as="geometry">
            <mxPoint x="790" y="540" as="sourcePoint" />
            <mxPoint x="850" y="480" as="targetPoint" />
            <Array as="points">
              <mxPoint x="850" y="540" />
            </Array>
          </mxGeometry>
        </mxCell>
        <mxCell id="wTjUlb8jR-apnW_w9-XR-36" value="" style="endArrow=classic;html=1;rounded=0;" edge="1" parent="1">
          <mxGeometry width="50" height="50" relative="1" as="geometry">
            <mxPoint x="800" y="720" as="sourcePoint" />
            <mxPoint x="880" y="440" as="targetPoint" />
            <Array as="points">
              <mxPoint x="940" y="720" />
              <mxPoint x="940" y="440" />
            </Array>
          </mxGeometry>
        </mxCell>
        <mxCell id="wTjUlb8jR-apnW_w9-XR-37" value="" style="endArrow=classic;html=1;rounded=0;" edge="1" parent="1">
          <mxGeometry width="50" height="50" relative="1" as="geometry">
            <mxPoint x="34.33" y="380" as="sourcePoint" />
            <mxPoint x="34.33" y="310" as="targetPoint" />
            <Array as="points" />
          </mxGeometry>
        </mxCell>
        <mxCell id="wTjUlb8jR-apnW_w9-XR-38" value="" style="endArrow=classic;html=1;rounded=0;" edge="1" parent="1">
          <mxGeometry width="50" height="50" relative="1" as="geometry">
            <mxPoint x="10" y="560" as="sourcePoint" />
            <mxPoint x="10" y="260" as="targetPoint" />
            <Array as="points">
              <mxPoint x="-30" y="560" />
              <mxPoint x="-30" y="260" />
            </Array>
          </mxGeometry>
        </mxCell>
        <mxCell id="wTjUlb8jR-apnW_w9-XR-41" value="Register" style="ellipse;whiteSpace=wrap;html=1;fillColor=#fff2cc;strokeColor=#d6b656;" vertex="1" parent="1">
          <mxGeometry x="160" y="664.14" width="120" height="60" as="geometry" />
        </mxCell>
        <mxCell id="wTjUlb8jR-apnW_w9-XR-42" value="" style="endArrow=none;html=1;rounded=0;entryX=0;entryY=0.5;entryDx=0;entryDy=0;" edge="1" parent="1" target="wTjUlb8jR-apnW_w9-XR-41">
          <mxGeometry width="50" height="50" relative="1" as="geometry">
            <mxPoint x="60" y="560" as="sourcePoint" />
            <mxPoint x="400" y="400" as="targetPoint" />
          </mxGeometry>
        </mxCell>
        <mxCell id="wTjUlb8jR-apnW_w9-XR-43" value="Request for&amp;nbsp;&lt;div&gt;register&lt;/div&gt;" style="ellipse;whiteSpace=wrap;html=1;fillColor=#fff2cc;strokeColor=#d6b656;" vertex="1" parent="1">
          <mxGeometry x="420" y="420" width="120" height="60" as="geometry" />
        </mxCell>
        <mxCell id="wTjUlb8jR-apnW_w9-XR-44" value="" style="endArrow=none;html=1;rounded=0;exitX=1;exitY=0.5;exitDx=0;exitDy=0;" edge="1" parent="1" source="wTjUlb8jR-apnW_w9-XR-43">
          <mxGeometry width="50" height="50" relative="1" as="geometry">
            <mxPoint x="350" y="430" as="sourcePoint" />
            <mxPoint x="830" y="420" as="targetPoint" />
          </mxGeometry>
        </mxCell>
        <mxCell id="wTjUlb8jR-apnW_w9-XR-45" value="View personal medical history" style="ellipse;whiteSpace=wrap;html=1;fillColor=#fff2cc;strokeColor=#d6b656;" vertex="1" parent="1">
          <mxGeometry x="419" y="550" width="120" height="60" as="geometry" />
        </mxCell>
        <mxCell id="wTjUlb8jR-apnW_w9-XR-46" value="" style="endArrow=none;html=1;rounded=0;entryX=0;entryY=0.5;entryDx=0;entryDy=0;" edge="1" parent="1" target="wTjUlb8jR-apnW_w9-XR-45">
          <mxGeometry width="50" height="50" relative="1" as="geometry">
            <mxPoint x="60" y="560" as="sourcePoint" />
            <mxPoint x="400" y="510" as="targetPoint" />
          </mxGeometry>
        </mxCell>
        <mxCell id="wTjUlb8jR-apnW_w9-XR-47" value="" style="endArrow=none;html=1;rounded=0;exitX=1;exitY=0.5;exitDx=0;exitDy=0;" edge="1" parent="1" source="wTjUlb8jR-apnW_w9-XR-45">
          <mxGeometry width="50" height="50" relative="1" as="geometry">
            <mxPoint x="350" y="560" as="sourcePoint" />
            <mxPoint x="750" y="560" as="targetPoint" />
          </mxGeometry>
        </mxCell>
        <mxCell id="wTjUlb8jR-apnW_w9-XR-48" value="View appointments" style="ellipse;whiteSpace=wrap;html=1;fillColor=#fff2cc;strokeColor=#d6b656;" vertex="1" parent="1">
          <mxGeometry x="299" y="1030" width="120" height="60" as="geometry" />
        </mxCell>
        <mxCell id="wTjUlb8jR-apnW_w9-XR-49" value="" style="endArrow=none;html=1;rounded=0;entryX=0;entryY=0.5;entryDx=0;entryDy=0;" edge="1" parent="1" target="wTjUlb8jR-apnW_w9-XR-48">
          <mxGeometry width="50" height="50" relative="1" as="geometry">
            <mxPoint x="60" y="560" as="sourcePoint" />
            <mxPoint x="450" y="480" as="targetPoint" />
          </mxGeometry>
        </mxCell>
        <mxCell id="wTjUlb8jR-apnW_w9-XR-50" value="" style="endArrow=none;html=1;rounded=0;exitX=1;exitY=0.5;exitDx=0;exitDy=0;" edge="1" parent="1" source="wTjUlb8jR-apnW_w9-XR-48">
          <mxGeometry width="50" height="50" relative="1" as="geometry">
            <mxPoint x="400" y="530" as="sourcePoint" />
            <mxPoint x="750" y="710" as="targetPoint" />
          </mxGeometry>
        </mxCell>
        <mxCell id="wTjUlb8jR-apnW_w9-XR-51" value="Update profile" style="ellipse;whiteSpace=wrap;html=1;fillColor=#fff2cc;strokeColor=#d6b656;" vertex="1" parent="1">
          <mxGeometry x="230" y="330" width="120" height="60" as="geometry" />
        </mxCell>
        <mxCell id="wTjUlb8jR-apnW_w9-XR-52" value="" style="endArrow=none;html=1;rounded=0;exitX=0;exitY=0.5;exitDx=0;exitDy=0;" edge="1" parent="1" source="wTjUlb8jR-apnW_w9-XR-51">
          <mxGeometry width="50" height="50" relative="1" as="geometry">
            <mxPoint x="400" y="780" as="sourcePoint" />
            <mxPoint x="50" y="260" as="targetPoint" />
          </mxGeometry>
        </mxCell>
        <mxCell id="wTjUlb8jR-apnW_w9-XR-53" value="" style="endArrow=classic;html=1;rounded=0;" edge="1" parent="1">
          <mxGeometry width="50" height="50" relative="1" as="geometry">
            <mxPoint x="860" y="380" as="sourcePoint" />
            <mxPoint x="40" y="220" as="targetPoint" />
            <Array as="points">
              <mxPoint x="860" y="40" />
              <mxPoint x="440" y="40" />
              <mxPoint x="40" y="40" />
            </Array>
          </mxGeometry>
        </mxCell>
        <mxCell id="wTjUlb8jR-apnW_w9-XR-56" value="Add appointment" style="ellipse;whiteSpace=wrap;html=1;fillColor=#fff2cc;strokeColor=#d6b656;" vertex="1" parent="1">
          <mxGeometry x="240" y="610" width="120" height="60" as="geometry" />
        </mxCell>
        <mxCell id="wTjUlb8jR-apnW_w9-XR-57" value="Cancel personal appointments" style="ellipse;whiteSpace=wrap;html=1;fillColor=#fff2cc;strokeColor=#d6b656;" vertex="1" parent="1">
          <mxGeometry x="250" y="869" width="120" height="60" as="geometry" />
        </mxCell>
        <mxCell id="wTjUlb8jR-apnW_w9-XR-58" value="View personal appointments" style="ellipse;whiteSpace=wrap;html=1;fillColor=#fff2cc;strokeColor=#d6b656;" vertex="1" parent="1">
          <mxGeometry x="150" y="1010" width="120" height="60" as="geometry" />
        </mxCell>
        <mxCell id="wTjUlb8jR-apnW_w9-XR-59" value="" style="endArrow=none;html=1;rounded=0;entryX=0;entryY=0.5;entryDx=0;entryDy=0;" edge="1" parent="1" target="wTjUlb8jR-apnW_w9-XR-56">
          <mxGeometry width="50" height="50" relative="1" as="geometry">
            <mxPoint x="60" y="560" as="sourcePoint" />
            <mxPoint x="700" y="700" as="targetPoint" />
          </mxGeometry>
        </mxCell>
        <mxCell id="wTjUlb8jR-apnW_w9-XR-60" value="" style="endArrow=none;html=1;rounded=0;entryX=0;entryY=0.5;entryDx=0;entryDy=0;" edge="1" parent="1" target="wTjUlb8jR-apnW_w9-XR-58">
          <mxGeometry width="50" height="50" relative="1" as="geometry">
            <mxPoint x="60" y="560" as="sourcePoint" />
            <mxPoint x="700" y="700" as="targetPoint" />
          </mxGeometry>
        </mxCell>
        <mxCell id="wTjUlb8jR-apnW_w9-XR-61" value="" style="endArrow=none;html=1;rounded=0;exitX=0;exitY=0.5;exitDx=0;exitDy=0;" edge="1" parent="1" source="wTjUlb8jR-apnW_w9-XR-57">
          <mxGeometry width="50" height="50" relative="1" as="geometry">
            <mxPoint x="650" y="750" as="sourcePoint" />
            <mxPoint x="60" y="560" as="targetPoint" />
          </mxGeometry>
        </mxCell>
        <mxCell id="wTjUlb8jR-apnW_w9-XR-63" value="View reports and analytics" style="ellipse;whiteSpace=wrap;html=1;fillColor=#fff2cc;strokeColor=#d6b656;" vertex="1" parent="1">
          <mxGeometry x="470" y="290" width="120" height="60" as="geometry" />
        </mxCell>
        <mxCell id="wTjUlb8jR-apnW_w9-XR-64" value="" style="endArrow=none;html=1;rounded=0;exitX=1;exitY=0.5;exitDx=0;exitDy=0;" edge="1" parent="1" source="wTjUlb8jR-apnW_w9-XR-63">
          <mxGeometry width="50" height="50" relative="1" as="geometry">
            <mxPoint x="590" y="550" as="sourcePoint" />
            <mxPoint x="750" y="270" as="targetPoint" />
          </mxGeometry>
        </mxCell>
        <mxCell id="wTjUlb8jR-apnW_w9-XR-65" value="Add prescription" style="ellipse;whiteSpace=wrap;html=1;fillColor=#fff2cc;strokeColor=#d6b656;" vertex="1" parent="1">
          <mxGeometry x="500" y="610" width="120" height="60" as="geometry" />
        </mxCell>
        <mxCell id="wTjUlb8jR-apnW_w9-XR-66" value="" style="endArrow=none;html=1;rounded=0;exitX=1;exitY=0.5;exitDx=0;exitDy=0;" edge="1" parent="1" source="wTjUlb8jR-apnW_w9-XR-65">
          <mxGeometry width="50" height="50" relative="1" as="geometry">
            <mxPoint x="590" y="610" as="sourcePoint" />
            <mxPoint x="750" y="560" as="targetPoint" />
          </mxGeometry>
        </mxCell>
        <mxCell id="wTjUlb8jR-apnW_w9-XR-72" value="" style="html=1;verticalAlign=bottom;endArrow=open;dashed=1;endSize=8;curved=0;rounded=0;exitX=0;exitY=0.5;exitDx=0;exitDy=0;entryX=1;entryY=0.5;entryDx=0;entryDy=0;" edge="1" source="wTjUlb8jR-apnW_w9-XR-65" parent="1" target="wTjUlb8jR-apnW_w9-XR-56">
          <mxGeometry relative="1" as="geometry">
            <mxPoint x="530" y="615" as="targetPoint" />
          </mxGeometry>
        </mxCell>
        <mxCell id="wTjUlb8jR-apnW_w9-XR-73" value="&amp;lt;&amp;lt;include&amp;gt;&amp;gt;" style="text;html=1;align=center;verticalAlign=middle;whiteSpace=wrap;rounded=0;" vertex="1" parent="1">
          <mxGeometry x="410" y="613" width="60" height="30" as="geometry" />
        </mxCell>
        <mxCell id="wTjUlb8jR-apnW_w9-XR-76" value="Resolve request" style="ellipse;whiteSpace=wrap;html=1;fillColor=#fff2cc;strokeColor=#d6b656;" vertex="1" parent="1">
          <mxGeometry x="230" y="420" width="120" height="60" as="geometry" />
        </mxCell>
        <mxCell id="wTjUlb8jR-apnW_w9-XR-77" value="" style="endArrow=none;html=1;rounded=0;entryX=0;entryY=0.5;entryDx=0;entryDy=0;" edge="1" parent="1" target="wTjUlb8jR-apnW_w9-XR-76">
          <mxGeometry width="50" height="50" relative="1" as="geometry">
            <mxPoint x="60" y="420" as="sourcePoint" />
            <mxPoint x="560" y="590" as="targetPoint" />
          </mxGeometry>
        </mxCell>
        <mxCell id="wTjUlb8jR-apnW_w9-XR-78" value="&amp;lt;&amp;lt;include&amp;gt;&amp;gt;" style="text;html=1;align=center;verticalAlign=middle;whiteSpace=wrap;rounded=0;" vertex="1" parent="1">
          <mxGeometry x="359" y="423" width="60" height="30" as="geometry" />
        </mxCell>
        <mxCell id="wTjUlb8jR-apnW_w9-XR-79" value="" style="html=1;verticalAlign=bottom;endArrow=open;dashed=1;endSize=8;curved=0;rounded=0;exitX=0;exitY=0.5;exitDx=0;exitDy=0;entryX=1;entryY=0.5;entryDx=0;entryDy=0;" edge="1" parent="1" source="wTjUlb8jR-apnW_w9-XR-43" target="wTjUlb8jR-apnW_w9-XR-76">
          <mxGeometry relative="1" as="geometry">
            <mxPoint x="370" y="590" as="targetPoint" />
            <mxPoint x="470" y="590" as="sourcePoint" />
            <Array as="points" />
          </mxGeometry>
        </mxCell>
        <mxCell id="wTjUlb8jR-apnW_w9-XR-80" value="Adding new&amp;nbsp;&lt;div&gt;admins&lt;/div&gt;" style="ellipse;whiteSpace=wrap;html=1;fillColor=#fff2cc;strokeColor=#d6b656;" vertex="1" parent="1">
          <mxGeometry x="350" y="490" width="120" height="60" as="geometry" />
        </mxCell>
        <mxCell id="wTjUlb8jR-apnW_w9-XR-81" value="" style="endArrow=none;html=1;rounded=0;entryX=0;entryY=0.5;entryDx=0;entryDy=0;" edge="1" parent="1" target="wTjUlb8jR-apnW_w9-XR-80">
          <mxGeometry width="50" height="50" relative="1" as="geometry">
            <mxPoint x="60" y="420" as="sourcePoint" />
            <mxPoint x="520" y="590" as="targetPoint" />
          </mxGeometry>
        </mxCell>
        <mxCell id="wTjUlb8jR-apnW_w9-XR-83" value="View all user data" style="ellipse;whiteSpace=wrap;html=1;fillColor=#fff2cc;strokeColor=#d6b656;" vertex="1" parent="1">
          <mxGeometry x="140" y="493" width="120" height="60" as="geometry" />
        </mxCell>
        <mxCell id="wTjUlb8jR-apnW_w9-XR-85" value="" style="endArrow=none;html=1;rounded=0;entryX=0;entryY=0.5;entryDx=0;entryDy=0;" edge="1" parent="1" target="wTjUlb8jR-apnW_w9-XR-83">
          <mxGeometry width="50" height="50" relative="1" as="geometry">
            <mxPoint x="60" y="420" as="sourcePoint" />
            <mxPoint x="610" y="580" as="targetPoint" />
          </mxGeometry>
        </mxCell>
        <mxCell id="wTjUlb8jR-apnW_w9-XR-86" value="Add hospital data and service charges" style="ellipse;whiteSpace=wrap;html=1;fillColor=#fff2cc;strokeColor=#d6b656;" vertex="1" parent="1">
          <mxGeometry x="530" y="940" width="120" height="60" as="geometry" />
        </mxCell>
        <mxCell id="wTjUlb8jR-apnW_w9-XR-87" value="Manage hospital data and service charges" style="ellipse;whiteSpace=wrap;html=1;fillColor=#fff2cc;strokeColor=#d6b656;" vertex="1" parent="1">
          <mxGeometry x="540" y="1030" width="120" height="60" as="geometry" />
        </mxCell>
        <mxCell id="wTjUlb8jR-apnW_w9-XR-88" value="" style="endArrow=none;html=1;rounded=0;exitX=1;exitY=0.5;exitDx=0;exitDy=0;" edge="1" parent="1" source="wTjUlb8jR-apnW_w9-XR-87">
          <mxGeometry width="50" height="50" relative="1" as="geometry">
            <mxPoint x="860" y="670" as="sourcePoint" />
            <mxPoint x="750" y="710" as="targetPoint" />
          </mxGeometry>
        </mxCell>
        <mxCell id="wTjUlb8jR-apnW_w9-XR-89" value="" style="endArrow=none;html=1;rounded=0;exitX=1;exitY=0.5;exitDx=0;exitDy=0;" edge="1" parent="1" source="wTjUlb8jR-apnW_w9-XR-86">
          <mxGeometry width="50" height="50" relative="1" as="geometry">
            <mxPoint x="860" y="670" as="sourcePoint" />
            <mxPoint x="750" y="710" as="targetPoint" />
          </mxGeometry>
        </mxCell>
        <mxCell id="wTjUlb8jR-apnW_w9-XR-91" value="Choose payment method" style="ellipse;whiteSpace=wrap;html=1;fillColor=#fff2cc;strokeColor=#d6b656;" vertex="1" parent="1">
          <mxGeometry x="390" y="700" width="120" height="60" as="geometry" />
        </mxCell>
        <mxCell id="wTjUlb8jR-apnW_w9-XR-92" value="" style="html=1;verticalAlign=bottom;endArrow=open;dashed=1;endSize=8;curved=0;rounded=0;exitX=0;exitY=0.5;exitDx=0;exitDy=0;exitPerimeter=0;entryX=0.77;entryY=0.92;entryDx=0;entryDy=0;entryPerimeter=0;" edge="1" parent="1" source="wTjUlb8jR-apnW_w9-XR-91" target="wTjUlb8jR-apnW_w9-XR-56">
          <mxGeometry relative="1" as="geometry">
            <mxPoint x="340" y="680" as="targetPoint" />
            <mxPoint x="510" y="650" as="sourcePoint" />
            <Array as="points" />
          </mxGeometry>
        </mxCell>
        <mxCell id="wTjUlb8jR-apnW_w9-XR-93" value="&amp;lt;&amp;lt;extend&amp;gt;&amp;gt;" style="text;html=1;align=center;verticalAlign=middle;whiteSpace=wrap;rounded=0;rotation=45;" vertex="1" parent="1">
          <mxGeometry x="346" y="676" width="50" height="30" as="geometry" />
        </mxCell>
        <mxCell id="wTjUlb8jR-apnW_w9-XR-94" value="" style="endArrow=classic;html=1;rounded=0;entryX=0.5;entryY=1;entryDx=0;entryDy=0;exitX=0.5;exitY=0;exitDx=0;exitDy=0;" edge="1" parent="1" source="wTjUlb8jR-apnW_w9-XR-95" target="wTjUlb8jR-apnW_w9-XR-91">
          <mxGeometry width="50" height="50" relative="1" as="geometry">
            <mxPoint x="480" y="640" as="sourcePoint" />
            <mxPoint x="530" y="590" as="targetPoint" />
          </mxGeometry>
        </mxCell>
        <mxCell id="wTjUlb8jR-apnW_w9-XR-95" value="Pay via payment gateway" style="ellipse;whiteSpace=wrap;html=1;fillColor=#fff2cc;strokeColor=#d6b656;" vertex="1" parent="1">
          <mxGeometry x="329" y="800" width="120" height="60" as="geometry" />
        </mxCell>
        <mxCell id="wTjUlb8jR-apnW_w9-XR-96" value="Pay in cash" style="ellipse;whiteSpace=wrap;html=1;fillColor=#fff2cc;strokeColor=#d6b656;" vertex="1" parent="1">
          <mxGeometry x="460" y="800" width="120" height="60" as="geometry" />
        </mxCell>
        <mxCell id="wTjUlb8jR-apnW_w9-XR-97" value="" style="endArrow=classic;html=1;rounded=0;exitX=0.5;exitY=0;exitDx=0;exitDy=0;" edge="1" parent="1" source="wTjUlb8jR-apnW_w9-XR-96">
          <mxGeometry width="50" height="50" relative="1" as="geometry">
            <mxPoint x="429" y="800" as="sourcePoint" />
            <mxPoint x="460" y="760" as="targetPoint" />
          </mxGeometry>
        </mxCell>
        <mxCell id="wTjUlb8jR-apnW_w9-XR-98" value="Manage cash payment" style="ellipse;whiteSpace=wrap;html=1;fillColor=#fff2cc;strokeColor=#d6b656;" vertex="1" parent="1">
          <mxGeometry x="550" y="690" width="120" height="60" as="geometry" />
        </mxCell>
        <mxCell id="wTjUlb8jR-apnW_w9-XR-99" value="" style="endArrow=none;html=1;rounded=0;exitX=1;exitY=0.5;exitDx=0;exitDy=0;" edge="1" parent="1" source="wTjUlb8jR-apnW_w9-XR-98">
          <mxGeometry width="50" height="50" relative="1" as="geometry">
            <mxPoint x="540" y="650" as="sourcePoint" />
            <mxPoint x="750" y="710" as="targetPoint" />
          </mxGeometry>
        </mxCell>
        <mxCell id="wTjUlb8jR-apnW_w9-XR-100" value="&amp;lt;&amp;lt;include&amp;gt;&amp;gt;" style="text;html=1;align=center;verticalAlign=middle;whiteSpace=wrap;rounded=0;rotation=310;" vertex="1" parent="1">
          <mxGeometry x="520" y="760" width="60" height="30" as="geometry" />
        </mxCell>
        <mxCell id="wTjUlb8jR-apnW_w9-XR-101" value="" style="html=1;verticalAlign=bottom;endArrow=open;dashed=1;endSize=8;curved=0;rounded=0;exitX=0.667;exitY=0.037;exitDx=0;exitDy=0;exitPerimeter=0;entryX=0.296;entryY=0.943;entryDx=0;entryDy=0;entryPerimeter=0;" edge="1" parent="1" source="wTjUlb8jR-apnW_w9-XR-96" target="wTjUlb8jR-apnW_w9-XR-98">
          <mxGeometry relative="1" as="geometry">
            <mxPoint x="590" y="740" as="targetPoint" />
            <mxPoint x="510" y="650" as="sourcePoint" />
          </mxGeometry>
        </mxCell>
        <mxCell id="wTjUlb8jR-apnW_w9-XR-104" value="If the hospital is private &amp;amp;&amp;nbsp;desired time slot is available" style="text;html=1;align=center;verticalAlign=middle;whiteSpace=wrap;rounded=0;strokeColor=default;dashed=1;rotation=45;" vertex="1" parent="1">
          <mxGeometry x="265.86" y="724.14" width="80" height="70" as="geometry" />
        </mxCell>
        <mxCell id="wTjUlb8jR-apnW_w9-XR-106" value="" style="endArrow=none;dashed=1;html=1;dashPattern=1 3;strokeWidth=2;rounded=0;exitX=0.595;exitY=0.964;exitDx=0;exitDy=0;exitPerimeter=0;entryX=0.5;entryY=0;entryDx=0;entryDy=0;" edge="1" parent="1" source="wTjUlb8jR-apnW_w9-XR-93" target="wTjUlb8jR-apnW_w9-XR-104">
          <mxGeometry width="50" height="50" relative="1" as="geometry">
            <mxPoint x="210" y="770" as="sourcePoint" />
            <mxPoint x="260" y="720" as="targetPoint" />
          </mxGeometry>
        </mxCell>
        <mxCell id="wTjUlb8jR-apnW_w9-XR-107" value="Process refund" style="ellipse;whiteSpace=wrap;html=1;fillColor=#fff2cc;strokeColor=#d6b656;" vertex="1" parent="1">
          <mxGeometry x="430" y="869" width="120" height="60" as="geometry" />
        </mxCell>
        <mxCell id="wTjUlb8jR-apnW_w9-XR-108" value="" style="endArrow=none;html=1;rounded=0;exitX=1;exitY=0.5;exitDx=0;exitDy=0;" edge="1" parent="1" source="wTjUlb8jR-apnW_w9-XR-107">
          <mxGeometry width="50" height="50" relative="1" as="geometry">
            <mxPoint x="630" y="770" as="sourcePoint" />
            <mxPoint x="750" y="710" as="targetPoint" />
          </mxGeometry>
        </mxCell>
        <mxCell id="wTjUlb8jR-apnW_w9-XR-109" value="&amp;lt;&amp;lt;extend&amp;gt;&amp;gt;" style="text;html=1;align=center;verticalAlign=middle;whiteSpace=wrap;rounded=0;rotation=0;" vertex="1" parent="1">
          <mxGeometry x="378" y="874" width="50" height="30" as="geometry" />
        </mxCell>
        <mxCell id="wTjUlb8jR-apnW_w9-XR-110" value="" style="html=1;verticalAlign=bottom;endArrow=open;dashed=1;endSize=8;curved=0;rounded=0;exitX=0;exitY=0.5;exitDx=0;exitDy=0;entryX=1;entryY=0.5;entryDx=0;entryDy=0;" edge="1" parent="1">
          <mxGeometry relative="1" as="geometry">
            <mxPoint x="370" y="898" as="targetPoint" />
            <mxPoint x="430" y="898" as="sourcePoint" />
            <Array as="points" />
          </mxGeometry>
        </mxCell>
        <mxCell id="wTjUlb8jR-apnW_w9-XR-111" value="" style="endArrow=none;dashed=1;html=1;dashPattern=1 3;strokeWidth=2;rounded=0;entryX=0.5;entryY=0;entryDx=0;entryDy=0;" edge="1" parent="1" target="wTjUlb8jR-apnW_w9-XR-112">
          <mxGeometry width="50" height="50" relative="1" as="geometry">
            <mxPoint x="400" y="910" as="sourcePoint" />
            <mxPoint x="341" y="744" as="targetPoint" />
          </mxGeometry>
        </mxCell>
        <mxCell id="wTjUlb8jR-apnW_w9-XR-112" value="If the hospital is private &amp;amp; the payment was made initially" style="text;html=1;align=center;verticalAlign=middle;whiteSpace=wrap;rounded=0;strokeColor=default;dashed=1;rotation=0;" vertex="1" parent="1">
          <mxGeometry x="360" y="940" width="80" height="70" as="geometry" />
        </mxCell>
      </root>
    </mxGraphModel>
  </diagram>
</mxfile>
